<svg id="Layer_1" data-name="Layer 1" xmlns="http://www.w3.org/2000/svg" viewBox="0 0 185.63 29.73"><defs><style>.cls-1{fill:#019147;}.cls-2{fill:#fad500;}.cls-3{fill:#4d4d4d;}.cls-4{fill:#fad503;}.cls-5{fill:#221f1f;}</style></defs><title>Untitled-1</title><path class="cls-1" d="M96,3.56a15.46,15.46,0,0,0-10.19,8,14.93,14.93,0,0,0-1.19,10A14.64,14.64,0,0,0,89,29.09s3.62,3.23,7.63,3.78l3.3-10H96.05L94.17,28.7s-5.83-2.5-6.53-8.83c0,0-.66-6.25,3.4-9.93a9,9,0,0,1,3.4-2.29Z" transform="translate(-17.37 -3.33)"/><polygon class="cls-1" points="80.42 14.26 81.5 11.08 91.43 11.08 90.6 14.19 80.42 14.26"/><path class="cls-2" d="M105,18.6l-1.22,3.18H91.53L97.6,3.55s5.61-.53,9.48,2.19a15.34,15.34,0,0,1,5.59,6.43,18.48,18.48,0,0,1,1.21,8.42,16.26,16.26,0,0,1-2.76,6.32,16.15,16.15,0,0,1-12.7,6.15l1.19-3.31A10.67,10.67,0,0,0,109,24.34s3.43-5.38.94-10.46c0,0-2.88-7-9.85-7.28l-3.93,12Z" transform="translate(-17.37 -3.33)"/><path class="cls-3" d="M34.67,16l-1.6,5.89H17.37l.2-1c.2,0,.5,0,.89-.09a5.23,5.23,0,0,0,.89-.19,1.49,1.49,0,0,0,.72-.5,2.07,2.07,0,0,0,.33-.79L23.14,6.55a3.62,3.62,0,0,0,.08-.45,1.91,1.91,0,0,0,0-.28A1,1,0,0,0,22.74,5a5.25,5.25,0,0,0-1.67-.49l.21-1h9.36l-.2,1c-.25,0-.59.06-1,.13a5.37,5.37,0,0,0-.91.2,1.35,1.35,0,0,0-.74.53,2.62,2.62,0,0,0-.32.78L24.89,18.3c-.06.25-.1.5-.14.74a4.39,4.39,0,0,0,0,.55.92.92,0,0,0,.51,1,6.49,6.49,0,0,0,2.08.21,11,11,0,0,0,1.9-.16A2.75,2.75,0,0,0,30.62,20a12,12,0,0,0,1.65-1.86A23.24,23.24,0,0,0,33.76,16Z" transform="translate(-17.37 -3.33)"/><path class="cls-3" d="M52.73,3.54l-1,4.67h-.9A5.65,5.65,0,0,0,50,6a2.38,2.38,0,0,0-1.35-1.19,4.32,4.32,0,0,0-1-.11c-.43,0-.78,0-1.06,0H44.29L42.77,11.8H44.4a3.81,3.81,0,0,0,1.41-.21,3.71,3.71,0,0,0,1-.59,4.63,4.63,0,0,0,.79-1.06,8.49,8.49,0,0,0,.64-1.31h.91l-1.63,7.65h-.91V15.8a6.23,6.23,0,0,0-.11-1.2,3,3,0,0,0-.27-.87,1.54,1.54,0,0,0-.84-.65,3.87,3.87,0,0,0-1.18-.16H42.53L41.44,18c-.06.27-.11.55-.15.85a4.38,4.38,0,0,0-.07.64c0,.56.16.91.49,1.05a5.55,5.55,0,0,0,1.86.21,13.56,13.56,0,0,0,2.5-.16,2.65,2.65,0,0,0,1.18-.5,14,14,0,0,0,1.73-2,21.37,21.37,0,0,0,1.36-2h.9l-1.54,5.7H33.88l.21-1c.2,0,.49,0,.89-.08a4.27,4.27,0,0,0,.87-.18,1.44,1.44,0,0,0,.72-.51,2.13,2.13,0,0,0,.34-.8L39.64,6.55c0-.18.06-.33.08-.45s0-.22,0-.28a.92.92,0,0,0-.5-.84,5.26,5.26,0,0,0-1.66-.49l.2-1Z" transform="translate(-17.37 -3.33)"/><path class="cls-3" d="M60.55,21.82a9.38,9.38,0,0,1-3-.47A7.07,7.07,0,0,1,55.15,20a6.27,6.27,0,0,1-1.61-2.24,7.42,7.42,0,0,1-.58-3,11.69,11.69,0,0,1,.84-4.49,11,11,0,0,1,2.34-3.57,10.24,10.24,0,0,1,3.51-2.32,11.88,11.88,0,0,1,7.29-.48,8.63,8.63,0,0,1,2.13.78L70,4h1L69.7,10.34h-1a7.51,7.51,0,0,0-1.47-4.26,3.89,3.89,0,0,0-3.12-1.43,4.26,4.26,0,0,0-2.71.93,7.91,7.91,0,0,0-2,2.42,12.58,12.58,0,0,0-1.25,3.45,18.09,18.09,0,0,0-.45,4,7,7,0,0,0,.92,3.85,3,3,0,0,0,2.73,1.44A4.17,4.17,0,0,0,63,20.37a5.07,5.07,0,0,0,1.26-.82L65,16.22c0-.14.06-.28.08-.4a2.11,2.11,0,0,0,0-.31.89.89,0,0,0-.62-.8,6.76,6.76,0,0,0-1.77-.46l.2-.91H72l-.2.91a5.07,5.07,0,0,0-.85.12l-.78.18a1.34,1.34,0,0,0-.72.49,2.11,2.11,0,0,0-.32.74l-.48,2.11c-.08.36-.15.68-.2,1s-.1.6-.16.93a14.51,14.51,0,0,1-3.62,1.42A15.9,15.9,0,0,1,60.55,21.82Z" transform="translate(-17.37 -3.33)"/><path class="cls-3" d="M80,21.9l.2-.91a8.59,8.59,0,0,0,1.89-.33c.45-.14.68-.3.68-.49a2.33,2.33,0,0,0,0-.4c0-.11,0-.24,0-.38l-.59-3.57H76.32c-.19.31-.43.73-.71,1.24l-.73,1.33a6.52,6.52,0,0,0-.52,1.19,2.88,2.88,0,0,0-.08.41c0,.26.19.47.55.64a6.2,6.2,0,0,0,1.7.36l-.2.91h-7l.2-.91a5.63,5.63,0,0,0,.86-.12,3.12,3.12,0,0,0,.88-.31,4.45,4.45,0,0,0,.93-.73A5.62,5.62,0,0,0,73,18.74c1.59-2.65,3.06-5.11,4.39-7.37S80.27,6.5,82,3.53h2.34c.6,3.82,1.09,7,1.49,9.47s.74,4.59,1,6.27a2.16,2.16,0,0,0,.23.69,1.9,1.9,0,0,0,.55.6,2.09,2.09,0,0,0,.69.31,3.63,3.63,0,0,0,.75.12l-.19.91Zm1.89-7.3L80.84,8,77,14.6Z" transform="translate(-17.37 -3.33)"/><path class="cls-4" d="M34.18,15.49l-1.56,5.76H17.37l.19-.94q.3,0,.87-.09a4,4,0,0,0,.86-.19,1.41,1.41,0,0,0,.7-.49,1.86,1.86,0,0,0,.32-.76L23,6.28c0-.18.06-.32.08-.44s0-.21,0-.26a.92.92,0,0,0-.5-.83A4.57,4.57,0,0,0,21,4.28l.2-.94h9.1l-.2.94a9.12,9.12,0,0,0-1,.11,8.19,8.19,0,0,0-.88.2,1.24,1.24,0,0,0-.71.53,2.36,2.36,0,0,0-.32.75L24.67,17.76c-.05.25-.09.49-.13.72a4.25,4.25,0,0,0,0,.53A.92.92,0,0,0,25,20a6.21,6.21,0,0,0,2,.21A11.58,11.58,0,0,0,28.87,20a2.68,2.68,0,0,0,1.37-.56,12.34,12.34,0,0,0,1.61-1.81,24.74,24.74,0,0,0,1.45-2.15Z" transform="translate(-17.37 -3.33)"/><path class="cls-4" d="M52.29,3.34l-1,4.56h-.88a5.57,5.57,0,0,0-.8-2.18,2.37,2.37,0,0,0-1.32-1.17,4.32,4.32,0,0,0-1-.1c-.42,0-.76,0-1,0H44l-1.5,7h1.61a3.73,3.73,0,0,0,1.38-.2,3.32,3.32,0,0,0,.93-.59,4.4,4.4,0,0,0,.78-1,8.69,8.69,0,0,0,.63-1.28h.89l-1.6,7.48h-.89v-.47a7,7,0,0,0-.11-1.18,2.48,2.48,0,0,0-.27-.84,1.46,1.46,0,0,0-.81-.64,3.78,3.78,0,0,0-1.16-.16H42.3l-1.07,5c0,.26-.1.53-.15.83a5.84,5.84,0,0,0-.07.63c0,.54.17.88.49,1a5.28,5.28,0,0,0,1.82.21A12.82,12.82,0,0,0,45.77,20a2.5,2.5,0,0,0,1.16-.48,14.06,14.06,0,0,0,1.69-1.93A19.85,19.85,0,0,0,50,15.68h.89l-1.52,5.57H33.83l.2-.94c.19,0,.48,0,.87-.08a4.41,4.41,0,0,0,.87-.17,1.44,1.44,0,0,0,.69-.5,2.11,2.11,0,0,0,.34-.78l2.67-12.5a3.51,3.51,0,0,0,.08-.44,1.49,1.49,0,0,0,0-.26.91.91,0,0,0-.5-.83,4.57,4.57,0,0,0-1.62-.47l.2-.94Z" transform="translate(-17.37 -3.33)"/><path class="cls-4" d="M60.33,21.2a9.31,9.31,0,0,1-2.95-.46A6.78,6.78,0,0,1,55,19.38a6.12,6.12,0,0,1-1.59-2.18,7.16,7.16,0,0,1-.57-2.91,11.44,11.44,0,0,1,.83-4.39A10.68,10.68,0,0,1,56,6.43a10,10,0,0,1,3.47-2.28,11.59,11.59,0,0,1,4.36-.82,11.22,11.22,0,0,1,2.81.36,8.43,8.43,0,0,1,2.1.76l.87-.66h1L69.34,10h-1a7.39,7.39,0,0,0-1.44-4.16,3.86,3.86,0,0,0-3.08-1.39,4.21,4.21,0,0,0-2.67.91,7.69,7.69,0,0,0-2,2.36,12.33,12.33,0,0,0-1.24,3.37,17.81,17.81,0,0,0-.44,3.87,6.83,6.83,0,0,0,.91,3.76,3,3,0,0,0,2.69,1.4,3.87,3.87,0,0,0,1.66-.33A4.67,4.67,0,0,0,64,19l.74-3.25a3.14,3.14,0,0,0,.08-.4,1.89,1.89,0,0,0,0-.29.87.87,0,0,0-.61-.79,7.38,7.38,0,0,0-1.75-.45l.2-.88h9l-.19.88a8.44,8.44,0,0,0-.84.12l-.78.18a1.29,1.29,0,0,0-.71.48,2.1,2.1,0,0,0-.31.72l-.47,2.06c-.08.35-.14.67-.19.95s-.11.59-.16.91a14.7,14.7,0,0,1-3.57,1.38A15.8,15.8,0,0,1,60.33,21.2Z" transform="translate(-17.37 -3.33)"/><path class="cls-4" d="M79.77,21.28l.2-.89a9.22,9.22,0,0,0,1.88-.32c.45-.15.68-.31.68-.48a2.21,2.21,0,0,0,0-.39,3.12,3.12,0,0,0-.06-.37l-.58-3.5H76.14c-.19.31-.42.72-.71,1.22l-.73,1.3A6.69,6.69,0,0,0,74.18,19a2.6,2.6,0,0,0-.08.4c0,.25.19.46.55.62a6.2,6.2,0,0,0,1.7.36l-.2.89h-7l.2-.89c.23,0,.52-.06.86-.12a2.68,2.68,0,0,0,.87-.31,3.83,3.83,0,0,0,.93-.71,5.09,5.09,0,0,0,.81-1.06c1.59-2.59,3.05-5,4.38-7.2l4.63-7.66h2.32q.9,5.59,1.49,9.26c.39,2.44.74,4.48,1,6.11a2.24,2.24,0,0,0,.23.69,1.79,1.79,0,0,0,.54.57,2,2,0,0,0,.69.31,5.66,5.66,0,0,0,.76.12l-.21.89Zm1.88-7.13-1-6.43-3.79,6.43Z" transform="translate(-17.37 -3.33)"/><path class="cls-3" d="M114.69,29.41c0,.14-.06.27-.08.4s0,.23,0,.29a.93.93,0,0,0,.43.84,4.36,4.36,0,0,0,1.61.41l-.19.94h-8.78l.19-.94a8.31,8.31,0,0,0,.85-.1,5,5,0,0,0,.85-.18,1.39,1.39,0,0,0,.67-.5,2,2,0,0,0,.33-.77l2.62-12.6a3.51,3.51,0,0,0,.08-.44,1.8,1.8,0,0,0,0-.27.94.94,0,0,0-.48-.83,4.7,4.7,0,0,0-1.59-.48l.19-.94h8.94a8,8,0,0,1,4.18.88,2.92,2.92,0,0,1,1.4,2.66,4.92,4.92,0,0,1-1.35,3.52,8.24,8.24,0,0,1-3.83,2.08c.31.63.7,1.42,1.18,2.36s1,2,1.67,3.26a13.67,13.67,0,0,0,.71,1.24,2.07,2.07,0,0,0,.93.88,3.27,3.27,0,0,0,.66.15l.61.08-.2.94h-5.91q-1.08-2.73-1.84-4.38c-.5-1.1-1.14-2.36-1.9-3.8h-.84ZM121.38,18a2.58,2.58,0,0,0-.77-2,3.31,3.31,0,0,0-2.22-.67h-.77L116,23h1.1a3.93,3.93,0,0,0,3.05-1.3A5.26,5.26,0,0,0,121.38,18Z" transform="translate(-17.37 -3.33)"/><path class="cls-3" d="M126.25,32.29l.2-.94c.25,0,.57,0,1-.09a4.33,4.33,0,0,0,1-.18,1.52,1.52,0,0,0,.73-.5,2.14,2.14,0,0,0,.36-.78l2.84-12.6c0-.18.06-.32.08-.44a1.8,1.8,0,0,0,0-.27.91.91,0,0,0-.58-.83,5.89,5.89,0,0,0-1.76-.48l.21-.94h9.75l-.22.94c-.26,0-.6.06-1,.12a7,7,0,0,0-.93.2,1.45,1.45,0,0,0-.75.52,2.29,2.29,0,0,0-.34.78L134,29.41c0,.14-.06.27-.08.4a2.16,2.16,0,0,0,0,.29.9.9,0,0,0,.57.89,6.74,6.74,0,0,0,1.78.36l-.21.94Z" transform="translate(-17.37 -3.33)"/><path class="cls-3" d="M156.82,14.24l-1,4.6h-.92a5.32,5.32,0,0,0-.84-2.21,2.5,2.5,0,0,0-1.41-1.17,5.52,5.52,0,0,0-1-.11l-1.09,0H148l-1.6,7h1.71a4.07,4.07,0,0,0,1.46-.21,3.51,3.51,0,0,0,1-.59,4.32,4.32,0,0,0,.82-1,7,7,0,0,0,.67-1.28H153l-1.7,7.54h-.92v-.47a6.08,6.08,0,0,0-.12-1.19,2.24,2.24,0,0,0-.28-.85,1.57,1.57,0,0,0-.86-.65,4.72,4.72,0,0,0-1.24-.16h-1.7l-1.14,5c-.06.25-.11.53-.16.83a4.57,4.57,0,0,0-.08.63c0,.55.18.89.53,1a5.89,5.89,0,0,0,1.93.21A15.94,15.94,0,0,0,149.9,31a3,3,0,0,0,1.23-.49,14.42,14.42,0,0,0,1.8-1.94,22.23,22.23,0,0,0,1.42-1.94h.92l-1.61,5.62H137.19l.21-.94q.32,0,.93-.09a4.21,4.21,0,0,0,.92-.17,1.48,1.48,0,0,0,.74-.5,2.17,2.17,0,0,0,.35-.79l2.86-12.6c0-.18.07-.32.09-.44s0-.21,0-.27a.93.93,0,0,0-.53-.83,5.32,5.32,0,0,0-1.73-.48l.22-.94Z" transform="translate(-17.37 -3.33)"/><path class="cls-3" d="M178.65,14.24l-.21.94-1,.14a3.08,3.08,0,0,0-1.28.5,2.65,2.65,0,0,0-.9,1.18,14.4,14.4,0,0,0-.74,2.46L171.64,32.4h-2.09L162.19,18l-2,9a12.73,12.73,0,0,0-.24,1.34,7.17,7.17,0,0,0-.09,1,2.44,2.44,0,0,0,.1.8,1.27,1.27,0,0,0,.28.48,2.37,2.37,0,0,0,1,.51c.47.14.81.23,1,.28l-.21.94H154.6l.2-.94,1-.18a3.41,3.41,0,0,0,1.22-.46,2.64,2.64,0,0,0,.91-1.16,13.22,13.22,0,0,0,.73-2.46l1.89-8.48c0-.19.07-.38.1-.55a2.9,2.9,0,0,0,.05-.48,3,3,0,0,0-.09-.73,1.68,1.68,0,0,0-.32-.64,2.33,2.33,0,0,0-.85-.67,5.49,5.49,0,0,0-1.18-.36l.22-.94H165L171.4,27,173,19.58c.11-.54.19-1,.25-1.33a6.64,6.64,0,0,0,.08-.95,2.51,2.51,0,0,0-.11-.81A1.4,1.4,0,0,0,173,16a2.36,2.36,0,0,0-.94-.5,9.5,9.5,0,0,0-1-.29l.21-.94Z" transform="translate(-17.37 -3.33)"/><path class="cls-3" d="M193.9,15.71A6.22,6.22,0,0,1,196.05,18a6.88,6.88,0,0,1,.78,3.35,10.63,10.63,0,0,1-.93,4.46,9.86,9.86,0,0,1-2.62,3.49,11.87,11.87,0,0,1-3.91,2.22,14.81,14.81,0,0,1-4.92.77H175.3l.21-.94c.21,0,.51,0,.92-.09a4,4,0,0,0,.91-.17,1.44,1.44,0,0,0,.74-.5,2,2,0,0,0,.35-.79l2.84-12.6c0-.18.07-.32.09-.44s0-.21,0-.27a.92.92,0,0,0-.52-.83,5.33,5.33,0,0,0-1.72-.48l.21-.94h9a13,13,0,0,1,2.86.34A8.46,8.46,0,0,1,193.9,15.71Zm-3.67,12.14a12.1,12.1,0,0,0,1.3-3.35,16.72,16.72,0,0,0,.42-3.78,6.45,6.45,0,0,0-1.08-3.93,3.84,3.84,0,0,0-3.27-1.46l-.86,0-.67,0L183,28.93a4.13,4.13,0,0,0-.08.47,2.53,2.53,0,0,0,0,.38,1.14,1.14,0,0,0,.57,1.11,3.59,3.59,0,0,0,1.62.31,5.07,5.07,0,0,0,3-.92A7.28,7.28,0,0,0,190.23,27.85Z" transform="translate(-17.37 -3.33)"/><path class="cls-1" d="M114.81,29.54c0,.14-.06.27-.08.39a2,2,0,0,0,0,.29.86.86,0,0,0,.45.81,4.7,4.7,0,0,0,1.68.4l-.2.92h-9.19l.2-.92c.2,0,.5,0,.89-.09a6.21,6.21,0,0,0,.88-.18,1.49,1.49,0,0,0,.71-.48,2,2,0,0,0,.35-.76l2.75-12.25c0-.17.07-.32.08-.43s0-.21,0-.26a.87.87,0,0,0-.51-.81,5,5,0,0,0-1.66-.47l.21-.91h9.36a8.91,8.91,0,0,1,4.38.85,2.81,2.81,0,0,1,1.47,2.59,4.57,4.57,0,0,1-1.43,3.42,8.57,8.57,0,0,1-4,2c.33.62.74,1.39,1.24,2.31l1.74,3.17c.19.35.45.75.75,1.2a2.07,2.07,0,0,0,1,.85,3.6,3.6,0,0,0,.7.15l.63.08-.22.92h-6.18q-1.12-2.67-1.92-4.27c-.53-1.06-1.2-2.3-2-3.69H116Zm7-11.06a2.43,2.43,0,0,0-.8-2,3.62,3.62,0,0,0-2.32-.65h-.81l-1.66,7.48h1.15a4.31,4.31,0,0,0,3.19-1.27A4.86,4.86,0,0,0,121.81,18.48Z" transform="translate(-17.37 -3.33)"/><path class="cls-1" d="M126.93,32.35l.2-.92,1-.08a5.12,5.12,0,0,0,.92-.18,1.52,1.52,0,0,0,.72-.49,2.11,2.11,0,0,0,.34-.76l2.74-12.25a3.73,3.73,0,0,0,.09-.43c0-.12,0-.21,0-.26a.88.88,0,0,0-.55-.81,5.71,5.71,0,0,0-1.71-.47l.2-.91h9.44l-.21.91c-.25,0-.58.06-1,.12a6.66,6.66,0,0,0-.9.19,1.43,1.43,0,0,0-.73.5,2.28,2.28,0,0,0-.32.77l-2.76,12.26c0,.14,0,.27-.07.39a2,2,0,0,0,0,.29.86.86,0,0,0,.55.86,6.45,6.45,0,0,0,1.72.35l-.2.92Z" transform="translate(-17.37 -3.33)"/><path class="cls-1" d="M156.94,14.79l-1,4.47h-.89a5.21,5.21,0,0,0-.81-2.15A2.4,2.4,0,0,0,152.89,16a5.15,5.15,0,0,0-1-.1l-1.06,0H148.5L147,22.7h1.64a3.83,3.83,0,0,0,1.41-.2,3.38,3.38,0,0,0,1-.57,4.5,4.5,0,0,0,.79-1,7.44,7.44,0,0,0,.64-1.25h.89L151.66,27h-.89v-.46a6.67,6.67,0,0,0-.11-1.15,2.3,2.3,0,0,0-.28-.82,1.54,1.54,0,0,0-.83-.64,4.28,4.28,0,0,0-1.18-.15h-1.65l-1.09,4.89c-.06.24-.11.51-.16.8a4.06,4.06,0,0,0-.07.62c0,.53.17.86.5,1a5.91,5.91,0,0,0,1.86.2,15.06,15.06,0,0,0,2.52-.15,2.75,2.75,0,0,0,1.19-.48,14.4,14.4,0,0,0,1.73-1.89,17.5,17.5,0,0,0,1.36-1.88h.89l-1.55,5.47H138.06l.2-.92.9-.08a4.71,4.71,0,0,0,.88-.17,1.38,1.38,0,0,0,.71-.49,2,2,0,0,0,.34-.77l2.75-12.25a3.4,3.4,0,0,0,.08-.43,1.49,1.49,0,0,0,0-.26.88.88,0,0,0-.5-.81,5.08,5.08,0,0,0-1.66-.47l.2-.91Z" transform="translate(-17.37 -3.33)"/><path class="cls-1" d="M178.92,14.79l-.2.91-1,.13a3.36,3.36,0,0,0-1.25.49,2.64,2.64,0,0,0-.88,1.15,14,14,0,0,0-.73,2.39l-2.83,12.59H170L162.78,18.4l-2,8.75c-.1.46-.18.9-.24,1.3a8.51,8.51,0,0,0-.08,1,2.72,2.72,0,0,0,.09.79,1.23,1.23,0,0,0,.28.46,2.22,2.22,0,0,0,1,.5,8.94,8.94,0,0,0,1,.27l-.21.92h-7.32l.2-.92,1-.18a3.18,3.18,0,0,0,1.2-.44,2.7,2.7,0,0,0,.89-1.13,13.76,13.76,0,0,0,.71-2.39L161.22,19c0-.19.07-.37.1-.54a2.53,2.53,0,0,0,0-.46,3.29,3.29,0,0,0-.08-.71,1.47,1.47,0,0,0-.32-.62,2.29,2.29,0,0,0-.83-.65A5,5,0,0,0,159,15.7l.22-.91h6.32l6.3,12.35,1.6-7.16c.12-.52.2-1,.25-1.29a6.26,6.26,0,0,0,.08-.93,2.82,2.82,0,0,0-.1-.79,1.31,1.31,0,0,0-.3-.5,2.33,2.33,0,0,0-.92-.49c-.44-.14-.79-.23-1-.28l.2-.91Z" transform="translate(-17.37 -3.33)"/><path class="cls-1" d="M194.1,16.21a6,6,0,0,1,2.08,2.23,6.63,6.63,0,0,1,.76,3.26,10.45,10.45,0,0,1-.9,4.35,9.58,9.58,0,0,1-2.54,3.39,11.47,11.47,0,0,1-3.78,2.16,14.38,14.38,0,0,1-4.75.75H176.1l.21-.92.89-.08a4.68,4.68,0,0,0,.89-.17,1.35,1.35,0,0,0,.7-.49,2,2,0,0,0,.35-.77l2.75-12.25c0-.17.07-.32.08-.43s0-.21,0-.26a.89.89,0,0,0-.51-.81,5,5,0,0,0-1.66-.47l.21-.91h8.7a12.22,12.22,0,0,1,2.76.33A8.35,8.35,0,0,1,194.1,16.21ZM190.55,28a12.35,12.35,0,0,0,1.27-3.26,17.08,17.08,0,0,0,.4-3.68,6.27,6.27,0,0,0-1.05-3.82A3.66,3.66,0,0,0,188,15.85l-.84,0-.65,0-3,13.18a3.73,3.73,0,0,0-.08.45,2.41,2.41,0,0,0,0,.38A1.1,1.1,0,0,0,184,31a3.47,3.47,0,0,0,1.56.29,4.83,4.83,0,0,0,2.89-.89A6.94,6.94,0,0,0,190.55,28Z" transform="translate(-17.37 -3.33)"/><path class="cls-5" d="M195.51,12.88V9.3h-.4a.21.21,0,0,1-.15,0A.17.17,0,0,1,195,9a.21.21,0,0,1,.15,0H197a1.33,1.33,0,0,1,.91.32,1,1,0,0,1,.35.76,1,1,0,0,1-.59.89,1.4,1.4,0,0,1,.68.45,1,1,0,0,1,.22.61,1.12,1.12,0,0,1-.14.55A1.21,1.21,0,0,1,198,13a1.24,1.24,0,0,1-.63.17h-2.23a.21.21,0,0,1-.15,0,.17.17,0,0,1,0-.22.21.21,0,0,1,.15,0Zm.3-2h1.05a1.41,1.41,0,0,0,.62-.13.72.72,0,0,0,.33-.29.65.65,0,0,0-.14-.9A1,1,0,0,0,197,9.3h-1.18Zm0,2h1.51a.88.88,0,0,0,.49-.13.85.85,0,0,0,.33-.32.71.71,0,0,0,0-.83,1,1,0,0,0-.44-.33,2.21,2.21,0,0,0-.77-.11h-1.07Z" transform="translate(-17.37 -3.33)"/><path class="cls-5" d="M200,12.88V9.3h-.25a.22.22,0,0,1-.16,0,.17.17,0,0,1,0-.22.22.22,0,0,1,.16,0h1.6a1.42,1.42,0,0,1,.68.16,1.37,1.37,0,0,1,.47.35,2.69,2.69,0,0,1,.43.72,1.85,1.85,0,0,1,.1.65v.42a2.17,2.17,0,0,1-.2.89,1.9,1.9,0,0,1-.67.75,1.43,1.43,0,0,1-.81.24h-1.6a.22.22,0,0,1-.16,0,.17.17,0,0,1,0-.22.22.22,0,0,1,.16,0Zm.29,0h1.08a1.14,1.14,0,0,0,.71-.25,1.63,1.63,0,0,0,.49-.59,1.54,1.54,0,0,0,.16-.68v-.54a1.31,1.31,0,0,0-.09-.5,2.08,2.08,0,0,0-.36-.6,1.21,1.21,0,0,0-.91-.42h-1.08Z" transform="translate(-17.37 -3.33)"/></svg>